<?xml version="1.0" encoding="UTF-8" standalone="no"?>
<svg
   xmlns:dc="http://purl.org/dc/elements/1.1/"
   xmlns:cc="http://creativecommons.org/ns#"
   xmlns:rdf="http://www.w3.org/1999/02/22-rdf-syntax-ns#"
   xmlns:svg="http://www.w3.org/2000/svg"
   xmlns="http://www.w3.org/2000/svg"
   xmlns:sodipodi="http://sodipodi.sourceforge.net/DTD/sodipodi-0.dtd"
   xmlns:inkscape="http://www.inkscape.org/namespaces/inkscape"
   id="svg2985"
   version="1.1"
   inkscape:version="1.0.2-2 (e86c870879, 2021-01-15)"
   width="106.88076"
   height="73.807594"
   sodipodi:docname="130top.svg">
  <g
     id="g1633"
     transform="matrix(0.27413705,0,0,-0.27413705,-42.602443,111.403)">
    <path
       style="fill:#ffffff;stroke:#000000;stroke-width:1px;stroke-linecap:butt;stroke-linejoin:miter;stroke-opacity:1"
       d="m 440.49416,240.73262 c -3.5177,18.92927 -9.858,55.48728 -0.6496,72.91235 h 1.2991 c 8.9388,-16.94825 2.4859,-53.1978 -0.6495,-72.91235 z"
       id="path4104-1-0"
       inkscape:connector-curvature="0"
       sodipodi:nodetypes="cccc" />
    <path
       style="fill:#ffffff;stroke:#000000;stroke-width:1px;stroke-linecap:butt;stroke-linejoin:miter;stroke-opacity:1"
       d="m 261.23771,241.35619 c -3.51762,18.92927 -9.858,55.48728 -0.64955,72.91235 h 1.2991 c 8.9388,-16.94825 2.48592,-53.1978 -0.64955,-72.91235 z"
       id="path4104-1"
       inkscape:connector-curvature="0"
       sodipodi:nodetypes="cccc" />
    <path
       style="fill:none;stroke:#000000;stroke-width:0.3049;stroke-linecap:butt;stroke-linejoin:miter;stroke-miterlimit:4;stroke-dasharray:none;stroke-opacity:1"
       d="m 330.22057,353.73909 40.73944,0.15189"
       id="path3999"
       inkscape:connector-curvature="0" />
    <path
       style="fill:none;stroke:#000000;stroke-width:0.406246;stroke-linecap:butt;stroke-linejoin:miter;stroke-miterlimit:4;stroke-dasharray:none;stroke-opacity:1"
       d="m 327.89422,301.39888 8.0876,0.56172 2.0086,3.52003 -1.7382,-1.72257 c -0.2409,4.8853 1.6204,5.71154 3.4379,5.69197 1.5065,-5.94577 5.5851,-11.30448 12.3008,-11.19671 6.566,0.006 9.9439,4.97074 11.1893,10.97203 3.6245,0.42968 3.4031,-3.56584 2.5753,-6.21623 l -0.072,0.52427 -1.1744,2.99577 c 0.4444,-3.65159 0.3349,-3.00857 0.5878,-4.60632 2.84226,-0.11589 5.79824,-0.23177 8.3736,-0.34766"
       id="path4001"
       inkscape:connector-curvature="0"
       sodipodi:nodetypes="cccccccccccc" />
    <path
       style="fill:#ffffff;fill-opacity:1;stroke:#000000;stroke-width:0.9763px;stroke-linecap:butt;stroke-linejoin:miter;stroke-opacity:1"
       d="m 351.00456,137.75027 c -4.907,-0.5262 -6.9678,7.85799 -14.8283,7.67263 l -63.5498,9.28792 v 14.13378 l 59.3131,10.49939 c 2.2709,7.52106 -0.921,7.81423 -1.6946,11.30703 l 0.4236,163.54815 c 1.0035,12.66846 2.8382,24.8189 10.5917,33.51725 1.9601,6.18497 0.38907,7.05859 8.36687,7.6702 l 2.6302,-0.0687"
       id="path3121"
       inkscape:connector-curvature="0"
       sodipodi:nodetypes="cccccccccc" />
    <path
       style="fill:#ffffff;fill-opacity:1;stroke:#000000;stroke-width:0.977139px;stroke-linecap:butt;stroke-linejoin:miter;stroke-opacity:1"
       d="m 350.80886,137.65275 c 4.907,-0.5271 6.9679,7.8715 14.8283,7.68582 l 63.55,9.30387 v 14.15808 l -59.3133,10.51743 c -2.2708,7.53398 0.921,7.82766 1.6947,11.32646 l -0.4237,163.8292 c -1.0035,12.69023 -3.0679,25.5742 -10.8213,34.28749 -3.50469,7.55849 -3.86021,7.47747 -10.3177,6.74859 l 0.78591,-0.23192"
       id="path3121-9"
       inkscape:connector-curvature="0"
       sodipodi:nodetypes="cccccccccc" />
    <path
       style="fill:none;stroke:#000000;stroke-width:0.307924;stroke-linecap:butt;stroke-linejoin:miter;stroke-miterlimit:4;stroke-dasharray:none;stroke-opacity:1"
       d="m 343.23864,394.47456 c 5.01496,-0.92074 9.83362,-0.99607 14.4035,0"
       id="path3847"
       inkscape:connector-curvature="0"
       sodipodi:nodetypes="cc" />
    <path
       style="fill:none;stroke:#000000;stroke-width:1px;stroke-linecap:butt;stroke-linejoin:miter;stroke-opacity:1"
       d="m 330.28515,319.86064 c -2.45031,-0.75368 -4.82353,-4.95719 -4.73278,-10.27689 l -10e-6,-15.95623 4.46234,0.94656"
       id="path4115"
       inkscape:connector-curvature="0"
       sodipodi:nodetypes="cccc" />
    <path
       style="fill:#ffffff;stroke:#000000;stroke-width:1px;stroke-linecap:butt;stroke-linejoin:miter;stroke-opacity:1"
       d="m 331.76616,243.71115 -7.8015,11.21651 -31.3513,-0.42366 -131.65424,17.15848 c -2.2611,-2.21548 -10.07758,25.49427 -0.1059,26.47913 l 164.38244,3.38933 5.80089,0.36147"
       id="path4005"
       inkscape:connector-curvature="0"
       sodipodi:nodetypes="ccccccc" />
    <path
       style="fill:none;stroke:#000000;stroke-width:1px;stroke-linecap:butt;stroke-linejoin:miter;stroke-opacity:1"
       d="m 371.51728,319.87446 c 2.45031,-0.75368 4.82353,-4.95719 4.73278,-10.27689 l 10e-6,-15.95623 -4.46234,0.94656"
       id="path4115-1"
       inkscape:connector-curvature="0"
       sodipodi:nodetypes="cccc" />
    <path
       style="fill:#ffffff;stroke:#000000;stroke-width:1px;stroke-linecap:butt;stroke-linejoin:miter;stroke-opacity:1"
       d="m 370.76476,245.33201 5.9625,9.62728 31.3513,-0.42366 131.6543,17.15848 c 2.2611,-2.21548 10.0777,25.49427 0.1059,26.47913 l -164.3825,3.38933 -5.07708,0.14979"
       id="path4005-4"
       inkscape:connector-curvature="0"
       sodipodi:nodetypes="ccccccc" />
    <path
       style="fill:#ffffff;stroke:#000000;stroke-width:1px;stroke-linecap:butt;stroke-linejoin:miter;stroke-opacity:1"
       d="m 232.29419,293.02058 c -0.84202,0.26201 -2.79146,5.77711 -5.74129,6.88956 0.54535,11.5816 1.61132,29.40167 5.85035,29.54388 4.57372,-0.26172 5.24196,-18.4374 5.17293,-29.77354 -2.34296,-1.63767 -4.51962,-6.60821 -5.28199,-6.6599 z"
       id="path3234"
       inkscape:connector-curvature="0"
       sodipodi:nodetypes="ccccc" />
    <path
       style="fill:none;stroke:#000000;stroke-width:0.3;stroke-linecap:butt;stroke-linejoin:miter;stroke-miterlimit:4;stroke-dasharray:none;stroke-opacity:1"
       d="m 215.09026,324.82375 h 35.64424 v 0"
       id="path4004"
       inkscape:connector-curvature="0" />
    <path
       style="fill:none;stroke:#000000;stroke-width:1px;stroke-linecap:butt;stroke-linejoin:miter;stroke-opacity:1"
       d="m 228.89327,323.1187 6.73912,1e-5"
       id="path4006"
       inkscape:connector-curvature="0"
       sodipodi:nodetypes="cc" />
    <path
       style="fill:#ffffff;stroke:#000000;stroke-width:1px;stroke-linecap:butt;stroke-linejoin:miter;stroke-opacity:1"
       d="m 283.56836,293.37241 c -0.842,0.26201 -2.7915,5.77711 -5.7413,6.88956 0.5453,11.5816 1.6113,29.40167 5.8503,29.54388 4.5738,-0.26172 5.242,-18.4374 5.173,-29.77354 -2.343,-1.63767 -4.5197,-6.60821 -5.282,-6.6599 z"
       id="path3234-8"
       inkscape:connector-curvature="0"
       sodipodi:nodetypes="ccccc" />
    <path
       style="fill:none;stroke:#000000;stroke-width:0.3;stroke-linecap:butt;stroke-linejoin:miter;stroke-miterlimit:4;stroke-dasharray:none;stroke-opacity:1"
       d="m 266.36436,325.17558 h 35.6443 v 0"
       id="path4004-4"
       inkscape:connector-curvature="0" />
    <path
       style="fill:none;stroke:#000000;stroke-width:1px;stroke-linecap:butt;stroke-linejoin:miter;stroke-opacity:1"
       d="m 280.16746,323.47053 6.7391,1e-5"
       id="path4006-4"
       inkscape:connector-curvature="0"
       sodipodi:nodetypes="cc" />
    <path
       style="fill:#ffffff;stroke:#000000;stroke-width:1px;stroke-linecap:butt;stroke-linejoin:miter;stroke-opacity:1"
       d="m 411.55056,292.39701 c -0.842,0.26201 -2.7914,5.77711 -5.7412,6.88956 0.5453,11.5816 1.6113,29.40167 5.8503,29.54388 4.5737,-0.26172 5.242,-18.4374 5.1729,-29.77354 -2.3429,-1.63767 -4.5196,-6.60821 -5.282,-6.6599 z"
       id="path3234-3"
       inkscape:connector-curvature="0"
       sodipodi:nodetypes="ccccc" />
    <path
       style="fill:none;stroke:#000000;stroke-width:0.3;stroke-linecap:butt;stroke-linejoin:miter;stroke-miterlimit:4;stroke-dasharray:none;stroke-opacity:1"
       d="m 394.34666,324.20018 h 35.6443 v 0"
       id="path4004-0"
       inkscape:connector-curvature="0" />
    <path
       style="fill:none;stroke:#000000;stroke-width:1px;stroke-linecap:butt;stroke-linejoin:miter;stroke-opacity:1"
       d="m 408.14966,322.49513 6.7391,10e-6"
       id="path4006-3"
       inkscape:connector-curvature="0"
       sodipodi:nodetypes="cc" />
    <path
       style="fill:#ffffff;stroke:#000000;stroke-width:1px;stroke-linecap:butt;stroke-linejoin:miter;stroke-opacity:1"
       d="m 462.82476,292.74884 c -0.842,0.26201 -2.7914,5.77711 -5.7413,6.88956 0.5453,11.5816 1.6113,29.40167 5.8504,29.54388 4.5737,-0.26172 5.2419,-18.4374 5.1729,-29.77354 -2.343,-1.63767 -4.5196,-6.60821 -5.282,-6.6599 z"
       id="path3234-8-3"
       inkscape:connector-curvature="0"
       sodipodi:nodetypes="ccccc" />
    <path
       style="fill:none;stroke:#000000;stroke-width:0.3;stroke-linecap:butt;stroke-linejoin:miter;stroke-miterlimit:4;stroke-dasharray:none;stroke-opacity:1"
       d="m 445.62086,324.55201 h 35.6442 v 0"
       id="path4004-4-4"
       inkscape:connector-curvature="0" />
    <path
       style="fill:none;stroke:#000000;stroke-width:1px;stroke-linecap:butt;stroke-linejoin:miter;stroke-opacity:1"
       d="m 459.42386,322.84696 6.7391,10e-6"
       id="path4006-4-4"
       inkscape:connector-curvature="0"
       sodipodi:nodetypes="cc" />
    <path
       style="fill:#000000;stroke:none"
       d="m 341.69647,387.78128 c 6.2744,-0.85811 12.37963,-0.57052 18.54535,0.44946 -1.22867,4.61683 -2.33753,11.58319 -4.3682,15.55741 -1.3232,1.32699 -1.93322,2.01886 -3.58082,2.58887 l -1.99919,-0.0284 c -1.9974,-0.49458 -2.06924,-0.62005 -3.58124,-1.76175 -1.05463,-1.19293 -1.14692,-1.4772 -2.09543,-3.18316 -0.60602,-1.42925 -0.87739,-2.86681 -1.48342,-4.41552 -1.09131,-3.60383 -1.05661,-6.10471 -1.43705,-9.20692 z"
       id="path4168"
       inkscape:connector-curvature="0"
       sodipodi:nodetypes="ccccccccc" />
    <path
       style="fill:none;stroke:#000000;stroke-width:1px;stroke-linecap:butt;stroke-linejoin:miter;stroke-opacity:1"
       d="M 162.29605,298.43305 160.92646,271.7261"
       id="path3215"
       inkscape:connector-curvature="0" />
    <path
       style="fill:none;stroke:#000000;stroke-width:1px;stroke-linecap:butt;stroke-linejoin:miter;stroke-opacity:1"
       d="m 160.92646,279.94362 54.44108,-7.53272 -0.15436,-8.00563"
       id="path3217"
       inkscape:connector-curvature="0"
       sodipodi:nodetypes="ccc" />
    <path
       style="fill:none;stroke:#000000;stroke-width:1px;stroke-linecap:butt;stroke-linejoin:miter;stroke-opacity:1"
       d="m 537.99086,298.77545 1.36959,-26.70695"
       id="path3215-7"
       inkscape:connector-curvature="0" />
    <path
       style="fill:none;stroke:#000000;stroke-width:1px;stroke-linecap:butt;stroke-linejoin:miter;stroke-opacity:1"
       d="m 539.36045,280.28602 -54.44108,-7.53272 0.0239,-7.87513"
       id="path3217-5"
       inkscape:connector-curvature="0"
       sodipodi:nodetypes="ccc" />
    <path
       style="fill:none;stroke:#000000;stroke-width:1.00609px;stroke-linecap:butt;stroke-linejoin:miter;stroke-opacity:1"
       d="M 277.34091,300.49224 V 256.14537"
       id="path3244"
       inkscape:connector-curvature="0" />
    <path
       style="fill:none;stroke:#000000;stroke-width:1.0076px;stroke-linecap:butt;stroke-linejoin:miter;stroke-opacity:1"
       d="M 417.16076,300.09261 V 255.61202"
       id="path3244-7"
       inkscape:connector-curvature="0" />
    <path
       style="fill:none;stroke:#000000;stroke-width:1px;stroke-linecap:butt;stroke-linejoin:miter;stroke-opacity:1"
       d="m 329.91322,235.47418 h 41.50016"
       id="path4030"
       inkscape:connector-curvature="0" />
    <path
       style="fill:none;stroke:#000000;stroke-width:1px;stroke-linecap:butt;stroke-linejoin:miter;stroke-opacity:1"
       d="m 272.29588,163.91339 3.26259,0.0652 -10e-6,-4.37187 61.14097,0.39152 -0.52202,-14.0944"
       id="path4032"
       inkscape:connector-curvature="0"
       sodipodi:nodetypes="ccccc" />
    <path
       style="fill:none;stroke:#000000;stroke-width:1px;stroke-linecap:butt;stroke-linejoin:miter;stroke-opacity:1"
       d="m 429.37495,163.75582 -3.26259,0.0652 10e-6,-4.37187 -61.14097,0.39152 0.52202,-14.0944"
       id="path4032-2"
       inkscape:connector-curvature="0"
       sodipodi:nodetypes="ccccc" />
    <path
       style="fill:#000000;stroke:none"
       d="m 334.35982,373.33702 6.01657,-2.39734 4.01106,8.2708 -1.22677,2.22054 c 2.41491,1.65773 9.99577,3.72446 12.79401,1.25708 l -3.09292,1.87755 0.071,0.69615 -0.18904,-0.17783 c 3.28067,1.45252 -5.13011,1.09174 -7.91069,0.0145 l -1.91669,2.4796 -2.20576,-1.53521 1.67126,-1.798 c -0.76118,-0.42962 -1.20948,-1.02754 -1.78268,-1.55827 l -2.47824,0.84634 c -2.50799,-2.73872 -2.94754,-6.67755 -4.65252,-9.95621 z"
       id="path4052"
       inkscape:connector-curvature="0"
       sodipodi:nodetypes="cccccccccccccccc" />
    <path
       style="fill:none;stroke:#ffffff;stroke-width:1px;stroke-linecap:butt;stroke-linejoin:miter;stroke-opacity:1"
       d="m 341.52833,384.37632 3.6912,1.3842"
       id="path4072"
       inkscape:connector-curvature="0"
       sodipodi:nodetypes="cc" />
    <path
       style="fill:none;stroke:#ffffff;stroke-width:1px;stroke-linecap:butt;stroke-linejoin:miter;stroke-opacity:1"
       d="m 359.15381,384.05334 -3.6912,1.3842"
       id="path4072-1"
       inkscape:connector-curvature="0"
       sodipodi:nodetypes="cc" />
    <path
       style="fill:none;stroke:#ffffff;stroke-width:0.2;stroke-linecap:butt;stroke-linejoin:miter;stroke-miterlimit:4;stroke-dasharray:none;stroke-opacity:1"
       d="m 343.19864,381.2803 -1.52262,-2.35314 -4.47558,-8.35135"
       id="path4092"
       inkscape:connector-curvature="0" />
    <path
       style="fill:none;stroke:#ffffff;stroke-width:0.4;stroke-linecap:butt;stroke-linejoin:miter;stroke-miterlimit:4;stroke-dasharray:none;stroke-opacity:1"
       d="m 342.58955,372.01079 -2.7684,1.33806 -4.47558,2.12245"
       id="path4094"
       inkscape:connector-curvature="0"
       sodipodi:nodetypes="ccc" />
    <path
       style="fill:none;stroke:#ffffff;stroke-width:0.4;stroke-linecap:butt;stroke-linejoin:miter;stroke-miterlimit:4;stroke-dasharray:none;stroke-opacity:1"
       d="m 344.91962,375.95576 -2.67612,1.6149 -4.47558,2.12245"
       id="path4094-2"
       inkscape:connector-curvature="0"
       sodipodi:nodetypes="ccc" />
    <path
       style="fill:#000000;stroke:none"
       d="m 367.47539,373.37798 -6.01657,-2.39734 -4.01106,8.2708 1.22677,2.22054 c -2.96955,1.65773 -9.33958,4.11597 -12.13782,1.64859 l 2.43673,1.48604 -0.071,0.69615 0.18904,-0.17783 c 2.65725,0.99576 2.2264,1.418 7.91069,0.0145 l 1.91669,2.4796 2.20576,-1.53521 -1.67126,-1.798 c 0.76118,-0.42962 1.20948,-1.02754 1.78268,-1.55827 l 2.47824,0.84634 c 2.50799,-2.73872 2.94754,-6.67755 4.65252,-9.95621 z"
       id="path4052-3"
       inkscape:connector-curvature="0"
       sodipodi:nodetypes="cccccccccccccccc" />
    <path
       style="fill:none;stroke:#ffffff;stroke-width:1px;stroke-linecap:butt;stroke-linejoin:miter;stroke-opacity:1"
       d="m 360.30688,384.41728 -3.6912,1.3842"
       id="path4072-3"
       inkscape:connector-curvature="0"
       sodipodi:nodetypes="cc" />
    <path
       style="fill:none;stroke:#ffffff;stroke-width:0.208259;stroke-linecap:butt;stroke-linejoin:miter;stroke-miterlimit:4;stroke-dasharray:none;stroke-opacity:1"
       d="m 358.51019,381.57814 1.60334,-2.42305 4.71286,-8.59944"
       id="path4092-6"
       inkscape:connector-curvature="0" />
    <path
       style="fill:none;stroke:#ffffff;stroke-width:0.4;stroke-linecap:butt;stroke-linejoin:miter;stroke-miterlimit:4;stroke-dasharray:none;stroke-opacity:1"
       d="m 359.24566,372.05175 2.7684,1.33806 4.47558,2.12245"
       id="path4094-5"
       inkscape:connector-curvature="0"
       sodipodi:nodetypes="ccc" />
    <path
       style="fill:none;stroke:#ffffff;stroke-width:0.4;stroke-linecap:butt;stroke-linejoin:miter;stroke-miterlimit:4;stroke-dasharray:none;stroke-opacity:1"
       d="m 356.91559,375.99672 2.67612,1.6149 4.47558,2.12245"
       id="path4094-2-2"
       inkscape:connector-curvature="0"
       sodipodi:nodetypes="ccc" />
    <path
       style="fill:none;stroke:#ffffff;stroke-width:0.3;stroke-linecap:butt;stroke-linejoin:miter;stroke-miterlimit:4;stroke-dasharray:none;stroke-opacity:1"
       d="m 340.38614,382.97593 3.03421,-1.6313"
       id="path4144"
       inkscape:connector-curvature="0"
       sodipodi:nodetypes="cc" />
    <path
       style="fill:none;stroke:#ffffff;stroke-width:0.3;stroke-linecap:butt;stroke-linejoin:miter;stroke-miterlimit:4;stroke-dasharray:none;stroke-opacity:1"
       d="m 361.44617,383.0738 -3.03421,-1.6313"
       id="path4144-4"
       inkscape:connector-curvature="0"
       sodipodi:nodetypes="cc" />
    <path
       style="fill:none;stroke:#ffffff;stroke-width:0.4;stroke-linecap:butt;stroke-linejoin:miter;stroke-miterlimit:4;stroke-dasharray:none;stroke-opacity:1"
       d="m 348.70609,383.0844 -0.32896,3.27594"
       id="path4164"
       inkscape:connector-curvature="0" />
    <path
       style="fill:none;stroke:#ffffff;stroke-width:0.4;stroke-linecap:butt;stroke-linejoin:miter;stroke-miterlimit:4;stroke-dasharray:none;stroke-opacity:1"
       d="m 353.44249,383.06133 0.16448,3.27594"
       id="path4164-1"
       inkscape:connector-curvature="0" />
    <path
       style="fill:#ff0a00;fill-opacity:1;stroke:none;stroke-width:0.895921px;stroke-linecap:butt;stroke-linejoin:miter;stroke-opacity:1"
       d="m 539.40417,279.33867 -57.37711,-3.54999 1.10905,16.17143 v -0.29583 h 55.45251 z"
       id="path1487"
       sodipodi:nodetypes="cccccc" />
    <path
       style="fill:#ff0a00;fill-opacity:1;stroke:none;stroke-width:0.895921px;stroke-linecap:butt;stroke-linejoin:miter;stroke-opacity:1"
       d="m 160.88274,278.99627 57.37711,-3.54998 -1.10905,16.17142 v -0.29583 h -55.45251 z"
       id="path1509"
       sodipodi:nodetypes="cccccc" />
    <path
       style="fill:#bbb0af;fill-opacity:1;stroke:none;stroke-width:1px;stroke-linecap:butt;stroke-linejoin:miter;stroke-opacity:1"
       d="m 218.25985,275.44629 132.03507,-13.37106 131.73214,13.71345 1.10905,15.8756 -265.98531,-0.3424 z"
       id="path1515"
       sodipodi:nodetypes="cccccc" />
    <path
       style="fill:#ff0a00;fill-opacity:1;stroke:none;stroke-width:1px;stroke-linecap:butt;stroke-linejoin:miter;stroke-opacity:1"
       d="m 371.5039,341.85475 c -10.25773,8.07001 -28.37046,12.21389 -40.73944,-0.15189 l 0.68712,18.82257 c 12.36898,12.36578 28.65466,9.26593 38.91239,1.19592 z"
       id="path1520-5"
       sodipodi:nodetypes="ccccc" />
    <path
       style="fill:#0f07b5;fill-opacity:1;stroke:none;stroke-width:0.604022px;stroke-linecap:butt;stroke-linejoin:miter;stroke-opacity:1"
       d="m 371.15368,336.16853 c -9.2125,7.48279 -31.00246,9.28902 -40.6938,-0.15406 l 0.19233,4.9625 c 16.87747,13.42121 27.99681,8.37693 40.78999,0.15407 z"
       id="path1564"
       sodipodi:nodetypes="ccccc" />
    <path
       style="fill:#bbb0af;fill-opacity:1;stroke:none;stroke-width:1.24744px;stroke-linecap:butt;stroke-linejoin:miter;stroke-opacity:1"
       d="m 338.51787,156.13806 0.45671,205.19545 h 24.20491 V 155.67382 Z"
       id="path1517"
       sodipodi:nodetypes="ccccc" />
    <path
       style="fill:#ff0700;fill-opacity:1;stroke:#000000;stroke-width:0.968178px;stroke-linecap:butt;stroke-linejoin:miter;stroke-opacity:1"
       d="m 351.04766,139.20207 c 8.309,25.41213 2.21032,63.26117 0.85802,92.92069 -1.3226,-29.85304 -9.98412,-66.55206 -0.85802,-92.92069 z"
       id="path4003"
       inkscape:connector-curvature="0"
       sodipodi:nodetypes="ccc" />
    <path
       style="fill:#ff0700;fill-opacity:1;stroke:none;stroke-width:1.00419px;stroke-linecap:butt;stroke-linejoin:miter;stroke-opacity:1"
       d="m 425.70288,159.99746 c -62.64175,0 -62.64175,0 -62.64175,0 v 16.44346 l 62.37855,-10.17928 z"
       id="path1566" />
    <path
       style="fill:#ff0700;fill-opacity:1;stroke:none;stroke-width:1.01045px;stroke-linecap:butt;stroke-linejoin:miter;stroke-opacity:1"
       d="m 274.94999,159.64839 c 63.42478,0 63.42478,0 63.42478,0 v 16.44346 l -63.15828,-10.17928 z"
       id="path1568" />
  </g>
  <metadata
     id="metadata2991">
    <rdf:RDF>
      <cc:Work
         rdf:about="">
        <dc:format>image/svg+xml</dc:format>
        <dc:type
           rdf:resource="http://purl.org/dc/dcmitype/StillImage" />
        <dc:title></dc:title>
      </cc:Work>
    </rdf:RDF>
  </metadata>
  <defs
     id="defs2989" />
  <sodipodi:namedview
     pagecolor="#ffffff"
     bordercolor="#666666"
     borderopacity="1"
     objecttolerance="10"
     gridtolerance="10"
     guidetolerance="10"
     inkscape:pageopacity="0"
     inkscape:pageshadow="2"
     inkscape:window-width="1920"
     inkscape:window-height="1051"
     id="namedview2987"
     showgrid="false"
     inkscape:zoom="8"
     inkscape:cx="83.993384"
     inkscape:cy="59.370005"
     inkscape:window-x="-9"
     inkscape:window-y="-9"
     inkscape:window-maximized="1"
     inkscape:current-layer="svg2985"
     showguides="true"
     inkscape:guide-bbox="true"
     inkscape:document-rotation="0"
     inkscape:snap-global="false"
     fit-margin-top="0"
     fit-margin-left="0"
     fit-margin-right="0"
     fit-margin-bottom="0">
    <inkscape:grid
       type="xygrid"
       id="grid3175"
       originx="-74.199229"
       originy="-61.102183" />
    <sodipodi:guide
       position="53.75,42.307594"
       orientation="1,0"
       id="guide1635" />
    <sodipodi:guide
       position="64.75,38.057594"
       orientation="0,-1"
       id="guide1637" />
    <sodipodi:guide
       position="107,49.307594"
       orientation="1,0"
       id="guide1639" />
  </sodipodi:namedview>
  <g
     inkscape:groupmode="layer"
     id="layer1"
     inkscape:label="Layer 1"
     transform="translate(-74.199229,-61.102183)" />
</svg>
